<svg viewBox="0 0 485 921.3893" fill="none" xmlns="http://www.w3.org/2000/svg" xmlns:xlink="http://www.w3.org/1999/xlink" x="0" y="0"><g id="AVATAR">
<path id="Vector" d="M484.84,262.205c1.73,-29.335 -11.06,-74.55 -14.93,-104.239c-0.77,-5.895 -11.75,-68.792 -13.37,-71.581c-7.54,0.352 -20.05,0.741 -27.24,-0.385c-3.37,7.534 -8.84,126.42 -10.08,145.965c-5.33,3.382 -24.98,16.272 -29.54,17.14c-33.36,6.347 -84.86,8.042 -118.26,8.454l-5.01,-3.956c-2.08,-9.965 -3.89,-17.984 -6.7,-27.741c-7.45,2.444 -11.04,3.069 -18.64,4.332c-9.75,1.758 -21.44,4.176 -31.07,3.806c1.456,6.388 3.15,15.324 6,21c-0.57,1.016 -3.764,5.613 -4.264,6.267c-8.857,0.38 -90.122,28.8 -97.748,38.622c-4.977,6.41 -30.618,44.373 -36.667,53.341c-17.945,26.342 -35.577,52.895 -52.895,79.655c-6.521,10.235 -25.69,37.302 -24.36,46.715c2.464,17.438 37.571,54.486 49.019,67.972c17.161,20.216 33.491,40.863 50.71,59.02c6.969,13.779 14.053,24.494 21.184,37.528c-1.714,69.369 -4.69,140.794 -5.735,209.815l43.774,0.209c0.909,24.466 7.644,29.386 9.982,55.856l141,-29.5c-23.14,-2.02 -7.23,-15.95 14,-6.5c0.31,-7.63 6.26,-11.78 6.37,-19.36c15.82,-0.483 32.69,-0.236 48.6,-0.234c-1.25,-57.914 -3.95,-116.67 -5.94,-174.632c-0.77,-23.559 -1.76,-47.11 -2.98,-70.65c-0.53,-67.663 -4.77,-144.219 -7.48,-212.257c6.24,-8.516 22.06,-24.84 29.61,-32.965l61.25,-65.192c9.07,-9.644 25.36,-25.878 31.41,-36.505z" fill="#E9E9E7"/>
<path id="Vector_2" d="M192.52,852.235c-2.105,-79.6 -2.689,-159.232 -1.755,-238.855l0.514,0.358c37.551,0.576 74.621,-3.32 111.511,-3.02l0.25,27.032c-0.09,70.134 0.83,145.263 -2.09,215.2l28.97,-0.73c-0.23,15.85 0.23,16.86 0,24.67c-30.24,10.5 -68.74,29.5 -165.745,44.5c-2.299,-26.12 -4.046,-45.52 -4.942,-69.664z" fill="#F0593B"/>
<path id="Vector_3" d="M225.77,849.389l37.81,0.01c2.8,11.831 -0.4,24.491 1.6,37.491c0,1.5 0,0.5 1,10.5c0.5,2 1.5,1.5 -2.5,3c-4,1.5 -4.5,1.69 -13,3.5c-8.5,1.81 14.5,-2.5 -41.505,9.5c1.7,-0.33 6.915,-18.04 7.135,-18.52c6.66,-15.04 4.04,-30.46 9.46,-45.481z" fill="#F8E5E5"/>
<path id="Vector_4" d="M225.28,849.258c2.72,-35.489 5.88,-70.943 9.48,-106.355c1.04,-10.749 2.15,-49.13 9.09,-55.305c3.16,-0.684 1.83,-0.867 4.79,0.783c1.61,11.912 2.8,24.559 3.77,36.565c3.31,41.359 8.98,82.979 11.45,124.365z" fill="#CDD3D1"/>
<path id="Vector_5" d="M191.28,613.738c37.55,0.576 74.62,-3.32 111.51,-3.02l0.25,27.032c-31.25,-8.427 -68.48,-10.109 -100.182,-18.627c-5.316,-1.427 -8.575,-0.662 -11.578,-5.385z" fill="#D04932"/>
<path id="Vector_6" d="M100.241,604.893c-17.153,-18.105 -33.419,-38.691 -50.513,-58.848c-11.404,-13.447 -46.374,-50.388 -48.828,-67.775c-1.325,-9.386 17.769,-36.374 24.265,-46.58c17.25,-26.681 34.814,-53.157 52.689,-79.423c6.026,-8.942 31.567,-46.795 36.524,-53.186c7.597,-9.794 88.545,-38.131 97.368,-38.51c-2.249,5.25 -3.642,8.073 -4.645,13.651c-10.447,51.094 -12.196,118.831 -13.341,171.663c-1.139,52.588 -4.422,115.3 -2.994,167.495c-0.935,79.623 -0.351,159.255 1.754,238.855l-33.287,-0.509l-43.604,-0.209c1.041,-68.82 4.006,-140.037 5.713,-209.205c-7.103,-12.997 -14.16,-23.68 -21.101,-37.419z" fill="#E9E9E7"/>
<path id="Vector_7" d="M100.241,604.893c8.094,-4 17.535,-11.012 24.764,-16.622c8.72,5.972 15.152,11.134 22.664,18.66c3.732,2.105 12.376,0.883 16.983,0.491c-0.281,9.089 -2.531,41.152 -1.793,47.396l1.373,4.171c-15.187,5.396 -27.634,-2.594 -39.085,-12.122l-3.805,-4.555c-7.103,-12.997 -14.16,-23.68 -21.101,-37.419z" fill="#DD944F"/>
<path id="Vector_8" d="M147.669,606.931c3.732,2.105 12.377,0.883 16.983,0.491c-0.281,9.089 -2.531,41.152 -1.793,47.396c-6.028,-8.24 -29.877,-38.48 -27.855,-46.673c3.245,-2.33 8.415,-1.449 12.665,-1.214z" fill="#CDD3D1"/>
<path id="Vector_9" d="M125.147,646.867c11.451,9.528 23.898,17.518 39.085,12.122c-2.255,4.839 -2.491,13.289 -2.738,18.73c-12.926,0.46 -24.351,0.891 -36.67,-3.694c0.329,-9.048 0.437,-18.105 0.323,-27.158z" fill="#CDD3D1"/>
<path id="Vector_10" d="M123.62,437.962c2.163,2.656 -0.909,134.526 -1.118,149.773c-4.066,-10.011 -9.444,-21.119 -13.976,-31.043l-33.371,-71.668z" fill="#F8E8E8"/>
<path id="Vector_11" d="M259.53,225.268c2.8,9.729 4.61,17.725 6.67,27.661l5,3.945c2.19,7.081 6.32,20.663 7.05,28.039c11.3,48.401 16.34,99.297 19.08,148.879c3.24,58.504 5.92,118.33 5.46,176.926c-36.89,-0.3 -73.96,3.596 -111.51,3.02l-0.514,-0.358c-1.428,-52.195 1.855,-114.907 2.994,-167.495c1.145,-52.832 2.894,-120.569 13.34,-171.663c1.004,-5.578 2.397,-8.401 4.646,-13.651c0.497,-0.652 2.934,-5.221 3.504,-6.234c-2.843,-5.66 -4.423,-14.378 -5.873,-20.748c9.593,0.369 21.873,-2.248 31.593,-4c7.57,-1.26 11.14,-1.883 18.56,-4.321z" fill="#364465"/>
<path id="Vector_12" d="M238.45,292.286c4.9,0.059 5.69,-0.77 9.06,1.535c1.37,5.092 0.07,6.982 1.45,12.103c1.72,14.744 2.44,33.167 3.5,48.237l5.72,72.876c2.12,26.638 5.6,59.304 5.74,86.063c0.03,4.868 -9.94,26.154 -12.69,32.259c-3.69,-6.731 -14.68,-25.193 -15.39,-31.848c-1.51,-14.323 -0.68,-32.283 -0.35,-46.929c1.1,-49.371 0.16,-99.395 1.34,-148.706c2.05,-2.577 0.79,-19.371 1.62,-25.59z" fill="#F0593B"/>
<path id="Vector_13" d="M259.53,225.268c2.8,9.729 4.61,17.725 6.67,27.661l-1.18,1.878c-3.98,5.178 -7.63,10.45 -12.8,14.45c-5.59,-0.649 -15.28,-0.072 -21.2,0.105c-5.22,-5.045 -10.48,-10.054 -15.77,-15.025c-2.843,-5.66 -4.423,-14.378 -5.873,-20.748c9.593,0.369 21.873,-2.248 31.593,-4c7.57,-1.26 11.14,-1.883 18.56,-4.321z" fill="#DD944F"/>
<path id="Vector_14" d="M259.53,225.268c2.8,9.729 4.61,17.725 6.67,27.661l-1.18,1.878c-5.9,-5.661 -18.14,-24.231 -24.05,-25.218c7.57,-1.26 11.14,-1.883 18.56,-4.321z" fill="#B4793F"/>
<path id="Vector_15" d="M266.2,252.929l5,3.945c2.19,7.081 6.32,20.663 7.05,28.039c-3.43,3.048 -4.26,10.042 -5.34,14.814c-5.86,-6.265 -13.64,-17.856 -19.33,-25.265c-1.05,-1.85 -0.99,-3.025 -1.36,-5.205c5.17,-4 8.82,-9.272 12.8,-14.45z" fill="#575C78"/>
<path id="Vector_16" d="M215.25,254.337c5.29,4.971 10.55,9.98 15.77,15.025c0.36,2.298 0.86,4.932 0.88,7.226l-1.63,1.636c-2.43,1.524 -13.06,17.997 -16.5,22.486c-0.932,-6.437 -2.313,-22.638 -6.67,-26.488c1.004,-5.578 2.397,-8.401 4.646,-13.651c0.498,-0.653 2.934,-5.221 3.504,-6.234z" fill="#575C78"/>
<path id="Vector_17" d="M231.02,269.362c5.92,-0.176 15.61,-0.754 21.2,-0.105c0.37,2.18 0.31,3.355 1.36,5.205c0.22,10.864 -5.14,16.269 -4.62,31.462c-1.38,-5.121 -0.08,-7.011 -1.45,-12.103c-3.37,-2.305 -4.16,-1.476 -9.06,-1.535l4.51,-1.37c3.09,-7.52 -8.54,-8.913 -11.06,-14.328c-0.02,-2.294 -0.52,-4.927 -0.88,-7.226z" fill="#D04932"/>
<path id="Vector_18" d="M230.27,278.224l1.63,-1.636c2.52,5.415 14.15,6.808 11.06,14.328l-4.51,1.37c-0.83,6.219 0.43,23.013 -1.63,25.59c-0.48,-4.178 0.08,-20.221 0.15,-25.234c-3.69,-5.19 -5.05,-8.376 -6.7,-14.418z" fill="#C3473A"/>
<path id="Vector_19" d="M326.19,607.515l43.26,-0.098c1.21,23.473 2.19,46.955 2.96,70.446c-2.15,-0.669 -35.67,1.207 -40.48,1.303c-2.03,-23.254 -2.89,-48.806 -5.74,-71.651z" fill="#CDD3D1"/>
<path id="Vector_20" d="M209.377,233.589c-10.693,-10.407 -6.15,-13.98 -10.84,-25.386c-5.823,-14.163 -11.125,-22.843 -13.133,-38.442c-5.501,-42.693 61.016,-56.936 74.546,-17.036c6.87,19.94 1.26,35.983 3.98,56.051c0.99,7.31 0.39,10.975 -4.4,16.492c-7.42,2.438 -10.99,3.061 -18.56,4.321c-9.72,1.752 -22,4.369 -31.593,4z" fill="#322A3A"/>
<path id="Vector_21" d="M238.28,154.622c13.49,-0.259 16.57,34.159 12.02,41.384c-6.86,4.854 -25.8,7.035 -34.94,8.564c-1.43,-0.035 -4.585,0.075 -5.642,-0.431c-8.271,-3.955 -12.612,-33.72 -8.28,-39.44c4.543,-5.999 28.672,-8.706 36.842,-10.077z" fill="#DD944F"/>
<path id="Vector_22" d="M429.35,7.559c-0.49,-4.303 0.05,-5.443 3.49,-7.559c3.93,0.923 2.54,0.07 5.16,3.314l3.06,0.06c2.8,-1.442 1.49,-1.293 4.9,-0.241c2.89,3.338 3.5,5.468 4.12,9.859c1.88,0.625 1.71,0.722 3.66,0.852l2.92,-0.727c13.17,9.457 -2.2,61.334 -1.07,73.08c-7.5,0.351 -19.97,0.739 -27.13,-0.384c-4.09,-10.238 -17.5,-20.329 -18.28,-34.849c-0.24,-4.415 -1.73,-11.488 1.12,-15.369c5.1,2.398 9.51,14.98 12.33,20.78c0.39,-15.219 -3.58,-29.88 -3.53,-45.03c0.01,-3.996 1.1,-4.829 4.49,-5.304l2.2,2.062z" fill="#DD944F"/>
<path id="Vector_23" d="M438,3.314l3.06,0.06c-0.02,12.492 2.83,24.808 2.98,37.639c-3.06,-9.99 -6.14,-27.269 -6.04,-37.699z" fill="#F8E8E8"/>
<path id="Vector_24" d="M429.35,7.559c2.2,6.67 3.07,19.768 3.34,26.902c-2.56,-2.78 -5.54,-22.064 -5.9,-26.358z" fill="#F8E8E8"/>
<path id="Vector_25" d="M450.08,12.992c1.88,0.625 1.71,0.722 3.66,0.852c-0.91,3.445 -1.02,19.449 -1.5,24.598c-0.98,-6.266 -2.35,-19.269 -2.16,-25.45z" fill="#F8E8E8"/>
</g></svg>