<svg viewBox="0 0 20 20" fill="none" xmlns="http://www.w3.org/2000/svg" xmlns:xlink="http://www.w3.org/1999/xlink" x="0" y="0"><g id="Component 1_10">
<path id="Vector_47" d="M10.0033,6.6633c4.14,0 7.5,-1.12 7.5,-2.5c0,-1.38 -3.36,-2.5 -7.5,-2.5c-4.15,0 -7.5,1.12 -7.5,2.5c0,1.38 3.35,2.5 7.5,2.5z" stroke="white" stroke-width="1.66667" stroke-linecap="round" stroke-linejoin="round"/>
<path id="Vector_48" d="M2.5033,4.1633v11.67c0,0.66 0.79,1.3 2.19,1.77c1.41,0.47 3.32,0.73 5.31,0.73c1.99,0 3.89,-0.26 5.3,-0.73c1.41,-0.47 2.2,-1.11 2.2,-1.77v-11.67" stroke="white" stroke-width="1.66667" stroke-linecap="round" stroke-linejoin="round"/>
<path id="Vector_49" d="M2.5033,10.0033c0,0.66 0.79,1.3 2.19,1.76c1.41,0.47 3.32,0.74 5.31,0.74c1.99,0 3.89,-0.27 5.3,-0.74c1.41,-0.46 2.2,-1.1 2.2,-1.76" stroke="white" stroke-width="1.66667" stroke-linecap="round" stroke-linejoin="round"/>
</g></svg>