<svg viewBox="0 0 18.3334 15.8465" fill="none" xmlns="http://www.w3.org/2000/svg" xmlns:xlink="http://www.w3.org/1999/xlink" x="0" y="0"><path id="Vector_28" d="M0.833,5.4268c0,-0.92 0.282,-1.83 0.807,-2.59c0.526,-0.77 1.27,-1.35 2.136,-1.69c0.866,-0.33 1.812,-0.39 2.714,-0.17c0.902,0.21 1.716,0.7 2.336,1.39c0.043,0.05 0.096,0.08 0.155,0.11c0.059,0.02 0.122,0.04 0.186,0.04c0.064,0 0.127,-0.02 0.185,-0.04c0.059,-0.03 0.112,-0.06 0.156,-0.11c0.617,-0.69 1.432,-1.18 2.335,-1.4c0.903,-0.22 1.852,-0.16 2.719,0.17c0.868,0.33 1.614,0.92 2.139,1.69c0.525,0.77 0.803,1.67 0.799,2.6c0,1.91 -1.25,3.34 -2.5,4.59l-4.577,4.42c-0.155,0.18 -0.346,0.33 -0.561,0.42c-0.215,0.1 -0.449,0.15 -0.685,0.16c-0.237,0 -0.471,-0.05 -0.687,-0.15c-0.216,-0.09 -0.409,-0.23 -0.567,-0.41l-4.59,-4.44c-1.25,-1.25 -2.5,-2.67 -2.5,-4.59z" stroke="white" stroke-width="1.66667" stroke-linecap="round" stroke-linejoin="round"/></svg>