<svg viewBox="0 0 20 20" fill="none" xmlns="http://www.w3.org/2000/svg" xmlns:xlink="http://www.w3.org/1999/xlink" x="0" y="0"><g id="Component 1_2">
<path id="Vector_28" d="M13.333,6.6635c1.326,0 2.598,0.53 3.536,1.47c0.938,0.94 1.464,2.21 1.464,3.53v5.84h-3.333v-5.84c0,-0.44 -0.176,-0.86 -0.488,-1.18c-0.313,-0.31 -0.737,-0.48 -1.179,-0.48c-0.442,0 -0.866,0.17 -1.178,0.48c-0.313,0.32 -0.488,0.74 -0.488,1.18v5.84h-3.334v-5.84c0,-1.32 0.527,-2.59 1.465,-3.53c0.937,-0.94 2.209,-1.47 3.535,-1.47z" stroke="black" stroke-width="1.66667" stroke-linecap="round" stroke-linejoin="round"/>
<path id="Vector_29" d="M5,7.5035h-3.333v10h3.333z" stroke="black" stroke-width="1.66667" stroke-linecap="round" stroke-linejoin="round"/>
<path id="Vector_30" d="M3.333,5.0035c0.921,0 1.667,-0.75 1.667,-1.67c0,-0.92 -0.746,-1.67 -1.667,-1.67c-0.92,0 -1.666,0.75 -1.666,1.67c0,0.92 0.746,1.67 1.666,1.67z" stroke="black" stroke-width="1.66667" stroke-linecap="round" stroke-linejoin="round"/>
</g></svg>