<svg viewBox="0 0 15 18.3361" fill="none" xmlns="http://www.w3.org/2000/svg" xmlns:xlink="http://www.w3.org/1999/xlink" x="0" y="0"><path id="Vector_39" d="M14.1663,10.0003c0,4.17 -2.916,6.25 -6.383,7.46c-0.182,0.06 -0.379,0.06 -0.558,-0.01c-3.475,-1.2 -6.392,-3.28 -6.392,-7.45v-5.83c0,-0.22 0.088,-0.44 0.244,-0.59c0.156,-0.16 0.368,-0.25 0.589,-0.25c1.667,0 3.75,-1 5.2,-2.26c0.177,-0.15 0.401,-0.24 0.634,-0.24c0.232,0 0.456,0.09 0.633,0.24c1.458,1.27 3.533,2.26 5.2,2.26c0.221,0 0.433,0.09 0.589,0.25c0.157,0.15 0.244,0.37 0.244,0.59z" stroke="white" stroke-width="1.66667" stroke-linecap="round" stroke-linejoin="round"/></svg>