<svg viewBox="0 0 20 20" fill="none" xmlns="http://www.w3.org/2000/svg" xmlns:xlink="http://www.w3.org/1999/xlink" x="0" y="0"><g id="Component 1_9">
<path id="Vector_43" d="M13.3333,17.5033v-1.67c0,-0.88 -0.35,-1.73 -0.98,-2.36c-0.62,-0.62 -1.47,-0.97 -2.35,-0.97h-5c-0.89,0 -1.74,0.35 -2.36,0.97c-0.63,0.63 -0.98,1.48 -0.98,2.36v1.67" stroke="white" stroke-width="1.66667" stroke-linecap="round" stroke-linejoin="round"/>
<path id="Vector_44" d="M13.3333,2.6033c0.71,0.19 1.35,0.61 1.8,1.19c0.45,0.58 0.7,1.3 0.7,2.04c0,0.74 -0.25,1.46 -0.7,2.04c-0.45,0.58 -1.09,1 -1.8,1.19" stroke="white" stroke-width="1.66667" stroke-linecap="round" stroke-linejoin="round"/>
<path id="Vector_45" d="M18.3333,17.5033v-1.67c0,-0.74 -0.25,-1.46 -0.7,-2.04c-0.45,-0.58 -1.08,-1 -1.8,-1.18" stroke="white" stroke-width="1.66667" stroke-linecap="round" stroke-linejoin="round"/>
<path id="Vector_46" d="M7.5033,9.1633c1.84,0 3.33,-1.49 3.33,-3.33c0,-1.84 -1.49,-3.33 -3.33,-3.33c-1.84,0 -3.34,1.49 -3.34,3.33c0,1.84 1.5,3.33 3.34,3.33z" stroke="white" stroke-width="1.66667" stroke-linecap="round" stroke-linejoin="round"/>
</g></svg>